<svg width="20" height="20" viewBox="0 0 20 20" xmlns="http://www.w3.org/2000/svg">
    <g stroke="#000" stroke-width="1.25" fill="none" fill-rule="evenodd" stroke-linecap="round" stroke-linejoin="round">
        <path d="M5.74 4.66 4.235 2.603c-.464-.828.001-1.977.8-1.977h9.933c.798 0 1.263 1.15.799 1.977L14.259 4.66"/>
        <path d="M16.875 18.125a1.14 1.14 0 0 1-.982 1.25H4.107a1.14 1.14 0 0 1-.982-1.25v-8.75c0-2.762 1.76-5 3.928-5h5.894c2.166 0 3.928 2.238 3.928 5v8.75z"/>
        <path d="M6.722 15.152c1.342 1.343 3.816 1.046 5.524-.663 1.709-1.708 2.005-4.181.663-5.524-1.342-1.342-3.816-1.045-5.524.663-1.709 1.709-2.006 4.182-.663 5.524z"/>
        <path d="m13.486 9.812-1.991.306a2 2 0 0 0-1.676 1.855l-.007.172A2 2 0 0 1 8.136 14l-1.991.306"/>
    </g>
</svg>
